<?xml version="1.0" encoding="utf-8"?>
<!-- Generator: Adobe Illustrator 17.0.0, SVG Export Plug-In . SVG Version: 6.00 Build 0)  -->
<!DOCTYPE svg PUBLIC "-//W3C//DTD SVG 1.1//EN" "http://www.w3.org/Graphics/SVG/1.1/DTD/svg11.dtd">
<svg version="1.1" id="Layer_1" xmlns="http://www.w3.org/2000/svg" xmlns:xlink="http://www.w3.org/1999/xlink" x="0px" y="0px"
	 width="1980px" height="638.578px" viewBox="0 0 1980 638.578" enable-background="new 0 0 1980 638.578" xml:space="preserve">
<g>
	<path d="M199.186,362.458c-11.387,0-20.926,9.441-20.926,20.926s9.441,20.925,20.926,20.925c11.582,0,20.925-9.538,20.925-20.925
		C220.111,371.899,210.67,362.458,199.186,362.458z M199.186,391.462c-4.477,0-8.078-3.601-8.078-8.078
		c0-4.671,3.504-8.078,8.078-8.078c4.671,0,8.078,3.309,8.078,8.078C207.264,387.958,203.857,391.462,199.186,391.462z"/>
	<path d="M211.449,327.517c0-16.546-13.529-29.978-30.074-29.978c-16.449,0-29.978,13.529-29.978,29.978
		s13.529,29.978,29.978,29.978C197.921,357.494,211.449,344.063,211.449,327.517z M164.342,327.517
		c0-9.538,7.494-17.033,17.033-17.033s17.227,7.591,17.227,17.033c0,9.538-7.591,17.033-17.227,17.033
		C171.836,344.549,164.342,337.056,164.342,327.517z"/>
	<path d="M199.186,291.019c11.485,0,20.925-9.344,20.925-20.829c0-11.387-9.441-20.925-20.925-20.925
		c-11.485,0-20.926,9.441-20.926,20.925C178.26,281.675,187.799,291.019,199.186,291.019z M199.186,262.112
		c4.671,0,8.078,3.504,8.078,8.078c0,4.672-3.309,8.078-8.078,8.078c-4.574,0-8.078-3.407-8.078-8.078
		C191.108,265.616,194.708,262.112,199.186,262.112z"/>
	<path d="M240.258,261.139c11.387,0,20.925-9.441,20.925-20.925s-9.441-20.925-20.925-20.925c-11.484,0-20.926,9.441-20.926,20.925
		C219.333,251.795,228.871,261.139,240.258,261.139z M240.258,232.135c4.477,0,8.078,3.601,8.078,8.078
		c0,4.672-3.504,8.078-8.078,8.078c-4.574,0-8.078-3.407-8.078-8.078C232.18,235.737,235.782,232.135,240.258,232.135z"/>
	<path d="M240.258,389.613c-11.485,0-20.926,9.441-20.926,20.925c0,11.484,9.441,20.926,20.926,20.926
		c11.484,0,20.925-9.441,20.925-20.926C261.184,399.054,251.743,389.613,240.258,389.613z M240.258,418.617
		c-4.477,0-8.078-3.601-8.078-8.078s3.601-8.078,8.078-8.078c4.477,0,8.078,3.601,8.078,8.078
		C248.337,415.113,244.735,418.617,240.258,418.617z"/>
	<path d="M345.179,214.324c0-5.158-1.655-5.158-2.531-5.158c-0.876,0-2.725,0-2.725,5.158v25.792h5.256V214.324z"/>
	<path d="M345.179,345.815v-92.851h-5.256l0,0v92.754c0.682,0,1.362-0.098,2.141-0.098
		C343.038,345.62,344.108,345.718,345.179,345.815z"/>
	<path d="M243.568,124.003c-110.566,0-200.497,89.932-200.497,200.497s89.931,200.497,200.497,200.497
		S444.064,435.066,444.064,324.5S354.133,124.003,243.568,124.003z M301.381,415.016c-1.849,9.149-8.176,17.227-17.13,23.749
		c-17.811,13.042-46.815,19.758-76.792,7.397c-0.098,0-0.195-0.098-0.292-0.098c-72.705-33.578-98.302-89.932-90.516-140.543
		s47.691-95.188,102.39-107.451c4.769-1.071,9.733-1.557,14.696-1.557l0,0c14.891,0,29.978,4.282,43.311,11.096
		c8.467,4.574,15.962,10.414,19.076,18.687c2.725,7.689,2.238,17.519-6.131,26.473c-24.332,25.695-34.941,53.044-34.357,77.181
		c0.973,21.899,11.485,46.036,34.065,60.343C299.045,396.232,303.133,405.964,301.381,415.016z M371.555,388.737
		c-1.362,16.254-8.662,36.401-24.916,61.025c-1.46,2.141-4.282,3.212-6.716,2.628c-2.531-0.584-4.477-2.725-4.964-5.256
		c-2.725-19.855-7.591-29.88-12.166-38.834c-6.034-11.096-9.246-20.634-9.441-32.605c0.778-11.777,6.131-20.634,13.626-25.598
		V214.324c0-10.22,7.494-18.006,15.67-18.006l0,0c8.176,0,15.475,7.787,15.475,18.006v136.941c0.584,0.487,1.168,0.876,1.752,1.362
		C368.051,359.927,372.917,372.483,371.555,388.737z"/>
	<path d="M351.31,362.263c-2.92-2.628-6.229-3.893-9.538-3.893l0,0c-1.947,0-3.893,0.487-5.742,1.265
		c-4.769,2.142-9.149,6.911-9.927,16.643c0.195,11.387,3.407,16.838,8.078,26.084c3.309,6.521,7.202,14.6,10.22,26.278
		c9.344-16.838,13.529-30.561,14.405-41.073C359.875,374.332,356.079,366.449,351.31,362.263z"/>
</g>
<g enable-background="new    ">
	<path d="M538.14,294.81l28.263-87.005h21.236l-40.027,111.219h-18.715l-39.874-111.219h21.159L538.14,294.81z"/>
	<path d="M644.241,319.024c-0.815-1.578-1.528-4.15-2.139-7.715c-5.908,6.161-13.139,9.242-21.694,9.242
		c-8.301,0-15.075-2.369-20.319-7.103c-5.245-4.737-7.868-10.592-7.868-17.57c0-8.809,3.271-15.569,9.816-20.28
		c6.543-4.71,15.9-7.065,28.072-7.065h11.382v-5.424c0-4.278-1.197-7.702-3.59-10.274c-2.394-2.571-6.035-3.857-10.923-3.857
		c-4.228,0-7.69,1.057-10.389,3.169c-2.7,2.114-4.049,4.8-4.049,8.059h-18.562c0-4.532,1.501-8.771,4.507-12.718
		c3.004-3.946,7.091-7.04,12.26-9.281c5.168-2.24,10.935-3.361,17.301-3.361c9.675,0,17.39,2.433,23.145,7.295
		c5.754,4.863,8.708,11.7,8.861,20.51v37.277c0,7.435,1.043,13.367,3.132,17.799v1.298H644.241z M623.846,305.656
		c3.667,0,7.116-0.89,10.35-2.673c3.234-1.782,5.665-4.175,7.295-7.18v-15.583h-10.007c-6.875,0-12.044,1.197-15.507,3.591
		c-3.464,2.394-5.194,5.78-5.194,10.159c0,3.565,1.184,6.405,3.552,8.517C616.704,304.6,619.874,305.656,623.846,305.656z"/>
	<path d="M725.823,296.566c0-3.309-1.363-5.831-4.087-7.562c-2.725-1.731-7.245-3.259-13.558-4.583
		c-6.315-1.324-11.586-3.005-15.812-5.043c-9.269-4.48-13.902-10.973-13.902-19.478c0-7.129,3.004-13.087,9.014-17.875
		c6.008-4.787,13.647-7.18,22.916-7.18c9.879,0,17.861,2.444,23.948,7.333c6.085,4.889,9.128,11.228,9.128,19.021h-18.562
		c0-3.564-1.325-6.531-3.972-8.9c-2.648-2.367-6.162-3.552-10.541-3.552c-4.075,0-7.397,0.943-9.968,2.826
		c-2.572,1.885-3.858,4.406-3.858,7.563c0,2.852,1.196,5.068,3.59,6.646c2.393,1.578,7.23,3.169,14.513,4.774
		c7.282,1.604,12.998,3.514,17.149,5.728c4.15,2.216,7.231,4.877,9.243,7.982c2.011,3.107,3.017,6.876,3.017,11.305
		c0,7.437-3.082,13.458-9.243,18.066c-6.162,4.61-14.234,6.913-24.215,6.913c-6.773,0-12.808-1.222-18.104-3.667
		c-5.297-2.444-9.422-5.805-12.375-10.083c-2.954-4.278-4.43-8.886-4.43-13.825h18.027c0.254,4.38,1.91,7.752,4.965,10.121
		c3.055,2.367,7.104,3.552,12.146,3.552c4.889,0,8.605-0.928,11.153-2.788C724.549,302.003,725.823,299.571,725.823,296.566z"/>
	<path d="M810.307,310.927c-5.45,6.417-13.19,9.625-23.222,9.625c-8.964,0-15.749-2.622-20.357-7.868
		c-4.61-5.244-6.913-12.833-6.913-22.762v-53.548h18.562v53.318c0,10.491,4.354,15.736,13.062,15.736
		c9.014,0,15.098-3.234,18.256-9.701v-59.353h18.562v82.651h-17.493L810.307,310.927z"/>
	<path d="M843.688,277.088c0-12.731,2.953-22.955,8.86-30.67c5.908-7.716,13.827-11.573,23.757-11.573
		c8.759,0,15.837,3.055,21.236,9.166v-42.318h18.561v117.33h-16.805l-0.917-8.555c-5.55,6.722-12.961,10.083-22.228,10.083
		c-9.676,0-17.506-3.896-23.489-11.687C846.679,301.072,843.688,290.482,843.688,277.088z M862.25,278.692
		c0,8.403,1.616,14.96,4.851,19.67c3.234,4.711,7.829,7.066,13.788,7.066c7.587,0,13.139-3.386,16.652-10.16v-35.29
		c-3.413-6.62-8.913-9.931-16.5-9.931c-6.01,0-10.644,2.381-13.902,7.142C863.879,261.951,862.25,269.118,862.25,278.692z"/>
	<path d="M971.866,320.552c-11.765,0-21.301-3.704-28.608-11.115c-7.308-7.409-10.962-17.275-10.962-29.599v-2.293
		c0-8.25,1.592-15.621,4.775-22.113c3.182-6.493,7.65-11.546,13.406-15.164c5.754-3.615,12.17-5.423,19.25-5.423
		c11.254,0,19.948,3.59,26.085,10.771c6.136,7.179,9.204,17.339,9.204,30.478v7.486h-54.005c0.559,6.824,2.838,12.222,6.837,16.194
		c3.997,3.972,9.025,5.958,15.086,5.958c8.505,0,15.431-3.438,20.777-10.312l10.007,9.548c-3.31,4.94-7.728,8.772-13.253,11.496
		C984.939,319.188,978.739,320.552,971.866,320.552z M969.65,249.74c-5.093,0-9.204,1.784-12.337,5.348
		c-3.131,3.564-5.131,8.53-5.996,14.895h35.367v-1.375c-0.408-6.212-2.062-10.91-4.965-14.093
		C978.816,251.334,974.792,249.74,969.65,249.74z"/>
	<path d="M1047.564,295.497l17.493-59.123h19.173l-28.645,82.651h-16.118l-28.874-82.651h19.249L1047.564,295.497z"/>
	<path d="M1144.041,319.024c-0.814-1.578-1.528-4.15-2.139-7.715c-5.908,6.161-13.139,9.242-21.694,9.242
		c-8.3,0-15.074-2.369-20.318-7.103c-5.246-4.737-7.868-10.592-7.868-17.57c0-8.809,3.271-15.569,9.815-20.28
		c6.543-4.71,15.901-7.065,28.072-7.065h11.381v-5.424c0-4.278-1.197-7.702-3.59-10.274c-2.394-2.571-6.034-3.857-10.923-3.857
		c-4.228,0-7.69,1.057-10.389,3.169c-2.701,2.114-4.049,4.8-4.049,8.059h-18.561c0-4.532,1.501-8.771,4.506-12.718
		c3.004-3.946,7.091-7.04,12.26-9.281c5.168-2.24,10.935-3.361,17.301-3.361c9.675,0,17.391,2.433,23.146,7.295
		c5.754,4.863,8.708,11.7,8.861,20.51v37.277c0,7.435,1.043,13.367,3.131,17.799v1.298H1144.041z M1123.646,305.656
		c3.667,0,7.116-0.89,10.351-2.673c3.234-1.782,5.664-4.175,7.294-7.18v-15.583h-10.006c-6.875,0-12.044,1.197-15.506,3.591
		c-3.464,2.394-5.194,5.78-5.194,10.159c0,3.565,1.183,6.405,3.552,8.517C1116.503,304.6,1119.674,305.656,1123.646,305.656z"/>
	<path d="M1282.302,293.128h-43.082l-9.015,25.896h-20.089l42.013-111.219h17.34l42.089,111.219h-20.166L1282.302,293.128z
		 M1244.643,277.545h32.235l-16.118-46.138L1244.643,277.545z"/>
	<path d="M1365.641,253.331c-2.444-0.407-4.966-0.611-7.563-0.611c-8.505,0-14.234,3.26-17.187,9.778v56.526h-18.563v-82.651h17.722
		l0.458,9.243c4.481-7.182,10.694-10.771,18.638-10.771c2.648,0,4.837,0.357,6.569,1.069L1365.641,253.331z"/>
	<path d="M1404.443,216.284v20.089h14.59v13.75h-14.59v46.138c0,3.158,0.624,5.437,1.872,6.837c1.247,1.401,3.476,2.101,6.683,2.101
		c2.139,0,4.303-0.255,6.494-0.765v14.361c-4.227,1.172-8.302,1.757-12.222,1.757c-14.26,0-21.388-7.868-21.388-23.603v-46.826
		h-13.597v-13.75h13.597v-20.089H1404.443z"/>
	<path d="M1532.086,290.378c0-4.889-1.719-8.656-5.155-11.305c-3.438-2.647-9.639-5.321-18.601-8.02
		c-8.963-2.698-16.093-5.703-21.388-9.014c-10.135-6.365-15.2-14.666-15.2-24.902c0-8.962,3.653-16.347,10.961-22.152
		c7.307-5.805,16.792-8.708,28.455-8.708c7.74,0,14.64,1.427,20.7,4.278c6.059,2.852,10.821,6.913,14.284,12.184
		c3.463,5.27,5.194,11.113,5.194,17.53h-19.25c0-5.805-1.821-10.35-5.461-13.635c-3.641-3.284-8.849-4.927-15.622-4.927
		c-6.314,0-11.217,1.35-14.704,4.049c-3.489,2.699-5.232,6.467-5.232,11.305c0,4.074,1.884,7.473,5.653,10.197
		c3.768,2.725,9.981,5.374,18.638,7.944c8.656,2.572,15.608,5.5,20.854,8.785c5.244,3.284,9.089,7.054,11.534,11.305
		c2.444,4.252,3.667,9.231,3.667,14.934c0,9.269-3.552,16.64-10.656,22.113c-7.103,5.475-16.742,8.212-28.912,8.212
		c-8.047,0-15.443-1.49-22.19-4.468c-6.748-2.98-11.993-7.091-15.736-12.337c-3.744-5.245-5.615-11.356-5.615-18.333h19.327
		c0,6.315,2.087,11.204,6.263,14.666c4.175,3.463,10.16,5.194,17.952,5.194c6.722,0,11.775-1.362,15.162-4.087
		C1530.393,298.464,1532.086,294.86,1532.086,290.378z"/>
	<path d="M1600.529,305.733c4.634,0,8.48-1.349,11.535-4.049c3.055-2.698,4.684-6.034,4.889-10.006h17.492
		c-0.203,5.144-1.808,9.943-4.812,14.399c-3.005,4.457-7.079,7.983-12.222,10.579c-5.144,2.598-10.694,3.896-16.652,3.896
		c-11.56,0-20.727-3.742-27.499-11.229c-6.774-7.485-10.159-17.823-10.159-31.012v-1.91c0-12.578,3.361-22.648,10.083-30.211
		c6.722-7.562,15.888-11.343,27.499-11.343c9.827,0,17.836,2.865,24.023,8.593c6.187,5.73,9.433,13.253,9.739,22.573h-17.492
		c-0.204-4.736-1.822-8.632-4.851-11.688c-3.03-3.055-6.888-4.583-11.573-4.583c-6.009,0-10.644,2.178-13.901,6.531
		c-3.26,4.355-4.915,10.962-4.966,19.823v2.979c0,8.964,1.616,15.648,4.851,20.052
		C1589.746,303.531,1594.418,305.733,1600.529,305.733z"/>
	<path d="M1666.757,245.387c6.059-7.028,13.723-10.541,22.992-10.541c17.62,0,26.557,10.058,26.812,30.172v54.006h-18.563v-53.318
		c0-5.703-1.235-9.74-3.704-12.107c-2.471-2.369-6.098-3.553-10.885-3.553c-7.435,0-12.986,3.312-16.652,9.931v59.047h-18.563
		v-117.33h18.563V245.387z"/>
	<path d="M1731.839,276.934c0-8.096,1.604-15.391,4.812-21.885c3.208-6.492,7.716-11.483,13.521-14.972
		c5.805-3.487,12.476-5.232,20.012-5.232c11.154,0,20.205,3.59,27.156,10.771c6.952,7.179,10.707,16.703,11.267,28.568l0.076,4.355
		c0,8.149-1.566,15.43-4.697,21.847c-3.132,6.417-7.613,11.381-13.444,14.896c-5.832,3.513-12.565,5.27-20.204,5.27
		c-11.663,0-20.996-3.883-27.997-11.649c-7.002-7.765-10.502-18.116-10.502-31.052V276.934z M1750.4,278.539
		c0,8.505,1.756,15.163,5.271,19.975c3.513,4.812,8.401,7.218,14.666,7.218c6.263,0,11.139-2.444,14.627-7.333
		c3.487-4.889,5.233-12.043,5.233-21.465c0-8.351-1.795-14.972-5.386-19.861c-3.59-4.889-8.467-7.333-14.628-7.333
		c-6.06,0-10.872,2.406-14.437,7.219C1752.182,261.772,1750.4,268.966,1750.4,278.539z"/>
	<path d="M1820.907,276.934c0-8.096,1.604-15.391,4.812-21.885c3.208-6.492,7.716-11.483,13.521-14.972
		c5.805-3.487,12.476-5.232,20.012-5.232c11.154,0,20.205,3.59,27.156,10.771c6.952,7.179,10.707,16.703,11.267,28.568l0.076,4.355
		c0,8.149-1.566,15.43-4.697,21.847c-3.132,6.417-7.613,11.381-13.444,14.896c-5.832,3.513-12.565,5.27-20.204,5.27
		c-11.662,0-20.995-3.883-27.997-11.649c-7.002-7.765-10.502-18.116-10.502-31.052V276.934z M1839.469,278.539
		c0,8.505,1.756,15.163,5.271,19.975c3.513,4.812,8.401,7.218,14.666,7.218c6.263,0,11.139-2.444,14.627-7.333
		c3.487-4.889,5.233-12.043,5.233-21.465c0-8.351-1.795-14.972-5.386-19.861c-3.59-4.889-8.467-7.333-14.628-7.333
		c-6.06,0-10.872,2.406-14.437,7.219C1841.25,261.772,1839.469,268.966,1839.469,278.539z"/>
	<path d="M1933.195,319.024h-18.563v-117.33h18.563V319.024z"/>
</g>
<g enable-background="new    ">
	<path d="M1281.093,432.493c-1.023,8.756-4.256,15.514-9.695,20.271c-5.44,4.758-12.671,7.136-21.692,7.136
		c-9.78,0-17.618-3.506-23.511-10.52c-5.895-7.012-8.843-16.394-8.843-28.145v-7.96c0-7.695,1.374-14.461,4.123-20.299
		c2.748-5.836,6.643-10.32,11.684-13.446c5.042-3.128,10.879-4.691,17.513-4.691c8.794,0,15.845,2.455,21.152,7.363
		c5.307,4.909,8.396,11.705,9.269,20.384h-10.974c-0.948-6.615-3.005-11.406-6.168-14.372c-3.166-2.966-7.592-4.448-13.277-4.448
		c-6.975,0-12.444,2.58-16.403,7.74c-3.962,5.16-5.942,12.5-5.942,22.022v8.024c0,8.992,1.876,16.143,5.628,21.455
		c3.753,5.311,9.002,7.966,15.751,7.966c6.064,0,10.718-1.373,13.959-4.121c3.242-2.748,5.392-7.534,6.453-14.357H1281.093z"/>
	<path d="M1291.555,427.433c0-6.028,1.184-11.448,3.554-16.263c2.367-4.813,5.665-8.528,9.893-11.144
		c4.226-2.614,9.049-3.923,14.47-3.923c8.377,0,15.153,2.9,20.328,8.699c5.174,5.801,7.76,13.514,7.76,23.142v0.739
		c0,5.99-1.146,11.364-3.439,16.121c-2.295,4.758-5.572,8.463-9.837,11.116c-4.264,2.653-9.164,3.98-14.698,3.98
		c-8.339,0-15.096-2.899-20.27-8.7c-5.175-5.799-7.762-13.475-7.762-23.028V427.433z M1302.131,428.683
		c0,6.823,1.582,12.302,4.747,16.433c3.165,4.132,7.401,6.198,12.708,6.198c5.345,0,9.59-2.094,12.737-6.283
		c3.146-4.188,4.72-10.054,4.72-17.598c0-6.747-1.602-12.215-4.805-16.404c-3.204-4.188-7.458-6.283-12.765-6.283
		c-5.193,0-9.381,2.066-12.565,6.197C1303.723,415.076,1302.131,420.989,1302.131,428.683z"/>
	<path d="M1372.181,458.762h-10.52v-87.336h10.52V458.762z"/>
	<path d="M1400.44,458.762h-10.518v-87.336h10.518V458.762z"/>
	<path d="M1417.328,380.921c0-1.705,0.52-3.145,1.563-4.321c1.042-1.174,2.587-1.762,4.634-1.762c2.047,0,3.601,0.588,4.662,1.762
		c1.061,1.176,1.592,2.617,1.592,4.321c0,1.707-0.531,3.128-1.592,4.265c-1.061,1.137-2.615,1.706-4.662,1.706
		c-2.047,0-3.592-0.569-4.634-1.706C1417.848,384.049,1417.328,382.628,1417.328,380.921z M1428.7,458.762h-10.52V397.24h10.52
		V458.762z"/>
	<path d="M1471.059,459.899c-8.339,0-15.125-2.738-20.356-8.216c-5.231-5.477-7.847-12.802-7.847-21.975v-1.934
		c0-6.102,1.166-11.551,3.498-16.347c2.331-4.795,5.591-8.547,9.78-11.258c4.187-2.71,8.728-4.065,13.618-4.065
		c7.997,0,14.215,2.635,18.65,7.904s6.652,12.812,6.652,22.629v4.379h-41.677c0.151,6.065,1.923,10.965,5.316,14.698
		c3.392,3.734,7.704,5.601,12.935,5.601c3.715,0,6.861-0.758,9.439-2.274c2.578-1.516,4.834-3.526,6.767-6.028l6.425,5.004
		C1489.103,455.939,1481.37,459.899,1471.059,459.899z M1469.752,404.746c-4.247,0-7.81,1.545-10.69,4.634
		c-2.882,3.09-4.662,7.42-5.345,12.993h30.818v-0.796c-0.304-5.345-1.745-9.486-4.321-12.424
		C1477.636,406.215,1474.148,404.746,1469.752,404.746z"/>
	<path d="M1536.96,406.679c-1.592-0.264-3.317-0.397-5.175-0.397c-6.899,0-11.581,2.937-14.044,8.813v43.668h-10.52V397.24h10.235
		l0.171,7.107c3.448-5.495,8.338-8.244,14.67-8.244c2.047,0,3.6,0.265,4.662,0.796V406.679z"/>
	<path d="M1567.948,444.491l15.24-47.251h10.746l-22.061,61.522h-8.018l-22.289-61.522h10.747L1567.948,444.491z"/>
	<path d="M1604.112,380.921c0-1.705,0.52-3.145,1.563-4.321c1.042-1.174,2.587-1.762,4.634-1.762c2.047,0,3.601,0.588,4.662,1.762
		c1.06,1.176,1.592,2.617,1.592,4.321c0,1.707-0.532,3.128-1.592,4.265c-1.061,1.137-2.616,1.706-4.662,1.706
		c-2.047,0-3.592-0.569-4.634-1.706C1604.632,384.049,1604.112,382.628,1604.112,380.921z M1615.484,458.762h-10.52V397.24h10.52
		V458.762z"/>
	<path d="M1643.743,458.762h-10.52v-87.336h10.52V458.762z"/>
	<path d="M1672.001,458.762h-10.518v-87.336h10.518V458.762z"/>
	<path d="M1714.362,459.899c-8.341,0-15.126-2.738-20.357-8.216c-5.231-5.477-7.845-12.802-7.845-21.975v-1.934
		c0-6.102,1.165-11.551,3.497-16.347c2.331-4.795,5.591-8.547,9.78-11.258c4.188-2.71,8.728-4.065,13.618-4.065
		c7.997,0,14.215,2.635,18.65,7.904s6.652,12.812,6.652,22.629v4.379h-41.677c0.151,6.065,1.923,10.965,5.316,14.698
		c3.392,3.734,7.704,5.601,12.935,5.601c3.715,0,6.861-0.758,9.44-2.274c2.576-1.516,4.832-3.526,6.766-6.028l6.426,5.004
		C1732.404,455.939,1724.671,459.899,1714.362,459.899z M1713.053,404.746c-4.245,0-7.81,1.545-10.69,4.634
		c-2.881,3.09-4.662,7.42-5.345,12.993h30.818v-0.796c-0.304-5.345-1.744-9.486-4.321-12.424
		C1720.937,406.215,1717.45,404.746,1713.053,404.746z"/>
	<path d="M1750.183,475.251l-5.97-4.094c3.562-4.967,5.419-10.084,5.571-15.352v-9.495h10.292v8.244
		c0,3.83-0.938,7.656-2.814,11.486C1755.385,469.869,1753.026,472.939,1750.183,475.251z"/>
	<path d="M1858.785,384.902h-26.61v73.86h-10.859v-73.86h-26.553v-8.927h64.023V384.902z"/>
	<path d="M1934.691,458.762h-10.974l-41.677-63.796v63.796h-10.973v-82.787h10.973l41.792,64.08v-64.08h10.86V458.762z"/>
</g>
</svg>
