<?xml version="1.0" encoding="utf-8"?>
<!-- Generator: Adobe Illustrator 17.0.0, SVG Export Plug-In . SVG Version: 6.00 Build 0)  -->
<!DOCTYPE svg PUBLIC "-//W3C//DTD SVG 1.1//EN" "http://www.w3.org/Graphics/SVG/1.1/DTD/svg11.dtd">
<svg version="1.1" id="Layer_1" xmlns="http://www.w3.org/2000/svg" xmlns:xlink="http://www.w3.org/1999/xlink" x="0px" y="0px"
	 width="612px" height="638.578px" viewBox="0 0 612 638.578" enable-background="new 0 0 612 638.578" xml:space="preserve">
<g>
	<path d="M251.494,366.117c-13.985,0-25.699,11.595-25.699,25.699s11.595,25.699,25.699,25.699
		c14.224,0,25.699-11.714,25.699-25.699C277.193,377.712,265.598,366.117,251.494,366.117z M251.494,401.737
		c-5.498,0-9.921-4.423-9.921-9.921c0-5.737,4.303-9.921,9.921-9.921c5.737,0,9.921,4.064,9.921,9.921
		C261.415,397.434,257.231,401.737,251.494,401.737z"/>
	<path d="M266.555,323.205c0-20.32-16.615-36.816-36.935-36.816c-20.201,0-36.816,16.615-36.816,36.816
		c0,20.201,16.615,36.816,36.816,36.816C249.94,360.021,266.555,343.526,266.555,323.205z M208.702,323.205
		c0-11.714,9.204-20.918,20.918-20.918s21.157,9.323,21.157,20.918c0,11.714-9.323,20.918-21.157,20.918
		C217.905,344.123,208.702,334.92,208.702,323.205z"/>
	<path d="M251.494,278.381c14.105,0,25.699-11.475,25.699-25.58c0-13.985-11.595-25.699-25.699-25.699
		c-14.105,0-25.699,11.595-25.699,25.699C225.795,266.906,237.509,278.381,251.494,278.381z M251.494,242.88
		c5.737,0,9.921,4.303,9.921,9.921c0,5.738-4.064,9.921-9.921,9.921c-5.618,0-9.921-4.184-9.921-9.921
		C241.573,247.184,245.995,242.88,251.494,242.88z"/>
	<path d="M301.936,241.685c13.985,0,25.699-11.595,25.699-25.699s-11.595-25.699-25.699-25.699s-25.699,11.595-25.699,25.699
		C276.237,230.21,287.951,241.685,301.936,241.685z M301.936,206.065c5.498,0,9.921,4.423,9.921,9.921
		c0,5.738-4.303,9.921-9.921,9.921c-5.618,0-9.921-4.184-9.921-9.921C292.015,210.488,296.438,206.065,301.936,206.065z"/>
	<path d="M301.936,399.466c-14.105,0-25.699,11.595-25.699,25.699s11.595,25.699,25.699,25.699s25.699-11.595,25.699-25.699
		S316.041,399.466,301.936,399.466z M301.936,435.087c-5.498,0-9.921-4.423-9.921-9.921s4.423-9.921,9.921-9.921
		s9.921,4.423,9.921,9.921C311.857,430.784,307.434,435.087,301.936,435.087z"/>
	<path d="M430.791,184.191c0-6.335-2.032-6.335-3.108-6.335s-3.347,0-3.347,6.335v31.676h6.455V184.191z"/>
	<path d="M430.791,345.677V231.645h-6.455l0,0v113.913c0.837,0,1.673-0.12,2.63-0.12
		C428.161,345.438,429.476,345.558,430.791,345.677z"/>
	<path d="M306,73.266c-135.788,0-246.234,110.447-246.234,246.234S170.212,565.734,306,565.734S552.234,455.288,552.234,319.5
		S441.788,73.266,306,73.266z M377.002,430.664c-2.271,11.236-10.041,21.157-21.038,29.166
		c-21.874,16.017-57.495,24.265-94.31,9.084c-0.12,0-0.239-0.12-0.359-0.12c-89.29-41.238-120.727-110.447-111.164-172.603
		s58.57-116.902,125.747-131.963c5.857-1.315,11.953-1.912,18.049-1.912l0,0c18.288,0,36.816,5.259,53.191,13.627
		c10.399,5.618,19.603,12.79,23.428,22.95c3.347,9.443,2.749,21.516-7.53,32.512c-29.883,31.556-42.912,65.145-42.195,94.788
		c1.195,26.895,14.105,56.538,41.836,74.109C374.133,407.595,379.153,419.548,377.002,430.664z M463.184,398.391
		c-1.673,19.962-10.638,44.705-30.6,74.946c-1.793,2.63-5.259,3.945-8.248,3.227c-3.108-0.717-5.498-3.347-6.096-6.455
		c-3.347-24.384-9.323-36.696-14.941-47.693c-7.411-13.627-11.355-25.341-11.595-40.043c0.956-14.463,7.53-25.341,16.734-31.437
		V184.191c0-12.551,9.204-22.113,19.245-22.113l0,0c10.041,0,19.005,9.563,19.005,22.113v168.18
		c0.717,0.598,1.434,1.076,2.152,1.673C458.88,363.009,464.857,378.429,463.184,398.391z"/>
	<path d="M438.321,365.878c-3.586-3.227-7.65-4.781-11.714-4.781l0,0c-2.391,0-4.781,0.598-7.052,1.554
		c-5.857,2.63-11.236,8.487-12.192,20.44c0.239,13.985,4.184,20.679,9.921,32.034c4.064,8.009,8.845,17.93,12.551,32.273
		c11.475-20.679,16.615-37.533,17.691-50.442C448.84,380.7,444.178,371.018,438.321,365.878z"/>
</g>
</svg>
