<?xml version="1.0" encoding="utf-8"?>
<!-- Generator: Adobe Illustrator 17.0.0, SVG Export Plug-In . SVG Version: 6.00 Build 0)  -->
<!DOCTYPE svg PUBLIC "-//W3C//DTD SVG 1.1//EN" "http://www.w3.org/Graphics/SVG/1.1/DTD/svg11.dtd">
<svg version="1.1" id="Layer_1" xmlns="http://www.w3.org/2000/svg" xmlns:xlink="http://www.w3.org/1999/xlink" x="0px" y="0px"
	 width="1074px" height="560px" viewBox="0 0 1074 560" enable-background="new 0 0 1074 560" xml:space="preserve">
<path fill="#FFFFFF" d="M214.846,118.558c-0.754-6.189-0.871-12.455-1.242-18.318c-2.09,0.428-6.08,1.245-8.703,1.782
	c3.661,12.637,7.38,25.477,11.1,38.318c0.627-0.049,1.253-0.098,1.879-0.146c0.021-1.809,0.312-3.663,0.013-5.417
	C216.97,129.353,215.509,124.006,214.846,118.558z"/>
<g>
	<g>
		<path d="M491.416,112.808h17.577l25.145,67.256l25.389-67.256h16.845l-34.178,85.443h-16.966L491.416,112.808z"/>
		<path d="M625.193,198.25v-7.934c-2.278,2.85-5.208,5.004-8.788,6.469c-3.582,1.465-7.689,2.197-12.328,2.197
			c-4.559,0-8.565-0.874-12.023-2.625c-3.459-1.749-6.124-4.169-7.995-7.263c-1.872-3.091-2.807-6.549-2.807-10.375
			c0-6.103,2.155-10.883,6.469-14.342c4.313-3.458,10.415-5.228,18.31-5.31h19.041v-1.709c0-3.824-1.262-6.793-3.783-8.911
			c-2.523-2.115-6.186-3.173-10.985-3.173c-6.186,0-12.655,2.035-19.408,6.103l-5.737-10.985c5.127-2.848,9.784-4.902,13.977-6.164
			c4.19-1.261,9.094-1.892,14.708-1.892c8.463,0,15.033,2.035,19.713,6.103c4.679,4.07,7.059,9.765,7.141,17.088l0.122,42.722
			H625.193z M619.579,183.542c3.254-2.155,5.084-4.821,5.492-7.995v-5.859h-16.478c-4.232,0-7.345,0.631-9.338,1.892
			c-1.995,1.263-2.99,3.316-2.99,6.164c0,2.768,1.037,4.964,3.112,6.591c2.075,1.629,4.901,2.441,8.483,2.441
			C612.417,186.777,616.323,185.699,619.579,183.542z"/>
		<path d="M687.506,146.252c-3.378-1.057-6.49-1.587-9.338-1.587c-2.686,0-4.821,0.469-6.408,1.404
			c-1.587,0.937-2.381,2.38-2.381,4.333c0,2.035,0.996,3.601,2.991,4.699c1.993,1.099,5.146,2.258,9.46,3.479
			c4.556,1.385,8.3,2.747,11.229,4.089c2.929,1.343,5.472,3.338,7.629,5.981c2.155,2.646,3.234,6.124,3.234,10.437
			c0,6.347-2.441,11.229-7.324,14.647c-4.882,3.417-11.027,5.126-18.431,5.126c-5.047,0-9.969-0.793-14.77-2.38
			c-4.803-1.587-8.87-3.845-12.206-6.774l5.492-11.107c2.93,2.523,6.428,4.497,10.498,5.92c4.067,1.425,7.934,2.136,11.596,2.136
			c2.93,0,5.268-0.507,7.019-1.526c1.749-1.017,2.624-2.542,2.624-4.577c0-2.277-1.019-3.986-3.052-5.127
			c-2.035-1.138-5.33-2.399-9.887-3.784c-4.395-1.301-7.976-2.583-10.741-3.845c-2.768-1.261-5.169-3.174-7.202-5.737
			c-2.034-2.563-3.051-5.92-3.051-10.07c0-6.427,2.338-11.331,7.019-14.708c4.678-3.375,10.558-5.065,17.638-5.065
			c4.312,0,8.563,0.61,12.755,1.831c4.19,1.22,7.913,2.929,11.169,5.126l-5.737,11.474
			C694.158,148.775,690.881,147.311,687.506,146.252z"/>
		<path d="M777.77,132.948v65.303h-15.99v-12.084c-4.395,8.464-11.962,12.694-22.703,12.694c-7.324,0-13.103-2.237-17.333-6.713
			c-4.232-4.474-6.348-10.578-6.348-18.309v-40.891h15.99V169.2c0,4.559,1.24,8.138,3.723,10.742
			c2.481,2.605,5.921,3.906,10.314,3.906c5.045-0.08,9.033-1.871,11.962-5.371c2.93-3.498,4.395-7.934,4.395-13.305v-32.224H777.77z
			"/>
		<path d="M860.526,107.681v90.57h-15.868v-10.497c-2.361,3.662-5.392,6.45-9.094,8.361c-3.704,1.913-7.995,2.869-12.878,2.869
			c-6.185,0-11.616-1.404-16.295-4.211c-4.681-2.808-8.321-6.754-10.925-11.84c-2.604-5.084-3.905-10.924-3.905-17.516
			c0-6.509,1.281-12.267,3.845-17.272c2.563-5.004,6.183-8.889,10.863-11.657c4.679-2.765,10.028-4.15,16.051-4.15
			c4.963,0,9.317,0.977,13.061,2.929c3.742,1.953,6.836,4.761,9.277,8.422v-36.008H860.526z M839.471,180.125
			c3.457-3.702,5.188-8.483,5.188-14.342s-1.73-10.639-5.188-14.342c-3.46-3.702-7.915-5.554-13.366-5.554
			c-5.452,0-9.887,1.852-13.305,5.554c-3.418,3.704-5.168,8.483-5.248,14.342c0.08,5.859,1.83,10.64,5.248,14.342
			c3.418,3.704,7.853,5.554,13.305,5.554C831.556,185.678,836.011,183.828,839.471,180.125z"/>
		<path d="M931.627,141.37c5.249,5.941,7.873,14.281,7.873,25.023c0,2.117-0.042,3.704-0.122,4.76h-48.214
			c1.056,4.638,3.234,8.281,6.53,10.924c3.295,2.646,7.343,3.967,12.145,3.967c3.336,0,6.53-0.629,9.582-1.892
			c3.052-1.261,5.716-3.071,7.995-5.432l8.544,8.911c-3.256,3.582-7.223,6.347-11.9,8.3c-4.681,1.953-9.868,2.93-15.563,2.93
			c-6.673,0-12.553-1.383-17.638-4.15c-5.087-2.766-9.014-6.652-11.779-11.657c-2.767-5.004-4.149-10.76-4.149-17.271
			c0-6.509,1.403-12.286,4.211-17.333c2.808-5.044,6.732-8.971,11.779-11.779c5.044-2.807,10.781-4.211,17.21-4.211
			C918.545,132.459,926.378,135.431,931.627,141.37z M924.975,160.534c-0.164-4.801-1.751-8.625-4.761-11.474
			c-3.011-2.847-6.999-4.272-11.962-4.272c-4.638,0-8.525,1.404-11.656,4.211c-3.134,2.808-5.066,6.652-5.798,11.535H924.975z"/>
		<path d="M943.161,133.07l16.601-0.122l17.088,49.679l16.723-49.679h15.99l-24.9,65.303h-16.356L943.161,133.07z"/>
		<path d="M1057.286,198.25v-7.934c-2.278,2.85-5.208,5.004-8.788,6.469c-3.582,1.465-7.689,2.197-12.328,2.197
			c-4.559,0-8.565-0.874-12.023-2.625c-3.459-1.749-6.124-4.169-7.995-7.263c-1.872-3.091-2.807-6.549-2.807-10.375
			c0-6.103,2.155-10.883,6.469-14.342c4.313-3.458,10.415-5.228,18.31-5.31h19.041v-1.709c0-3.824-1.262-6.793-3.783-8.911
			c-2.523-2.115-6.186-3.173-10.986-3.173c-6.185,0-12.654,2.035-19.407,6.103l-5.737-10.985c5.127-2.848,9.784-4.902,13.977-6.164
			c4.19-1.261,9.094-1.892,14.708-1.892c8.463,0,15.033,2.035,19.713,6.103c4.679,4.07,7.059,9.765,7.141,17.088l0.122,42.722
			H1057.286z M1051.672,183.542c3.254-2.155,5.084-4.821,5.492-7.995v-5.859h-16.478c-4.232,0-7.345,0.631-9.338,1.892
			c-1.995,1.263-2.99,3.316-2.99,6.164c0,2.768,1.037,4.964,3.112,6.591c2.075,1.629,4.901,2.441,8.483,2.441
			C1044.51,186.777,1048.416,185.699,1051.672,183.542z"/>
		<path d="M564.897,344.725l-7.568-18.065h-41.745l-7.568,18.065H491.05l37.473-85.443h16.967l36.984,85.443H564.897z
			 M521.443,312.622h30.028l-14.892-35.886L521.443,312.622z"/>
		<path d="M617.077,282.29c3.784-2.237,8.197-3.396,13.243-3.479v15.38c-6.755-0.406-12.145,1.159-16.173,4.699
			s-6.042,8.321-6.042,14.342v31.492h-15.868v-65.303h15.868v12.572C610.303,287.764,613.293,284.529,617.077,282.29z"/>
		<path d="M679.634,340.696c-5.208,3.174-10.661,4.761-16.355,4.761c-5.615,0-10.214-1.647-13.793-4.943
			c-3.582-3.296-5.371-8.157-5.371-14.587v-32.224h-9.154l-0.122-11.596h9.276v-17.943h15.746v17.943h18.675v11.596H659.86v29.417
			c0,3.011,0.568,5.147,1.709,6.408c1.139,1.263,2.848,1.892,5.126,1.892c2.441,0,5.533-0.895,9.277-2.686L679.634,340.696z"/>
		<path d="M541.889,421.501c-4.599-1.465-8.647-2.197-12.146-2.197c-3.906,0-7,0.732-9.276,2.197
			c-2.279,1.465-3.418,3.5-3.418,6.104c0,2.361,0.793,4.333,2.38,5.92s3.58,2.89,5.981,3.906c2.399,1.018,5.676,2.136,9.826,3.356
			c5.776,1.709,10.516,3.418,14.22,5.126c3.702,1.709,6.854,4.232,9.46,7.568c2.604,3.338,3.906,7.731,3.906,13.183
			c0,5.208-1.404,9.746-4.212,13.609c-2.807,3.866-6.673,6.816-11.596,8.85c-4.924,2.035-10.558,3.052-16.905,3.052
			c-6.673,0-13.183-1.24-19.53-3.723c-6.347-2.481-11.882-5.798-16.6-9.948l6.835-13.915c4.312,3.988,9.154,7.121,14.525,9.398
			c5.371,2.279,10.375,3.418,15.014,3.418c4.557,0,8.137-0.873,10.741-2.624c2.604-1.749,3.906-4.129,3.906-7.141
			c0-2.441-0.793-4.455-2.38-6.042s-3.602-2.869-6.042-3.846c-2.441-0.976-5.779-2.074-10.009-3.295
			c-5.779-1.709-10.498-3.376-14.159-5.005c-3.662-1.627-6.795-4.089-9.399-7.385c-2.605-3.296-3.906-7.629-3.906-12.999
			c0-4.963,1.322-9.296,3.967-13c2.644-3.702,6.387-6.57,11.23-8.605c4.84-2.033,10.436-3.052,16.783-3.052
			c5.533,0,11.005,0.814,16.417,2.441c5.411,1.629,10.232,3.826,14.465,6.592l-6.592,14.281
			C550.982,425.041,546.484,422.966,541.889,421.501z"/>
		<path d="M605.542,439.322c-5.29,0-9.582,1.791-12.877,5.37c-3.296,3.582-4.943,8.221-4.943,13.915
			c0,5.859,1.647,10.58,4.943,14.159c3.295,3.582,7.587,5.371,12.877,5.371c7.813,0,13.671-2.563,17.577-7.689l9.887,8.178
			c-2.93,4.232-6.795,7.487-11.596,9.765c-4.803,2.279-10.375,3.418-16.723,3.418c-6.429,0-12.145-1.383-17.149-4.15
			c-5.005-2.766-8.892-6.652-11.657-11.656c-2.767-5.005-4.149-10.761-4.149-17.272c0-6.591,1.403-12.408,4.211-17.454
			c2.808-5.045,6.713-8.951,11.718-11.718c5.005-2.766,10.761-4.15,17.271-4.15c5.939,0,11.249,1.037,15.93,3.112
			c4.678,2.075,8.482,5.025,11.412,8.85l-9.643,9.154C618.236,441.724,612.54,439.322,605.542,439.322z"/>
		<path d="M704.289,432.06c4.313,4.517,6.469,10.641,6.469,18.37v40.769h-15.989v-36.13c0-4.557-1.303-8.157-3.906-10.803
			c-2.605-2.644-6.146-3.967-10.619-3.967c-5.291,0.082-9.481,1.873-12.572,5.37c-3.094,3.5-4.639,7.977-4.639,13.427v32.103
			h-15.868v-90.569h15.868v37.717c4.475-8.544,12.328-12.896,23.558-13.061C694.076,425.285,699.975,427.543,704.289,432.06z"/>
		<path d="M775.023,429.558c5.167,2.767,9.195,6.652,12.084,11.656c2.888,5.005,4.334,10.763,4.334,17.271
			c0,6.592-1.446,12.41-4.334,17.455c-2.889,5.047-6.917,8.952-12.084,11.718c-5.168,2.768-11.128,4.15-17.882,4.15
			c-6.835,0-12.858-1.383-18.065-4.15c-5.208-2.766-9.257-6.671-12.145-11.718c-2.89-5.045-4.333-10.863-4.333-17.455
			c0-6.509,1.443-12.267,4.333-17.271c2.888-5.004,6.937-8.89,12.145-11.656c5.207-2.766,11.23-4.15,18.065-4.15
			C763.896,425.407,769.855,426.792,775.023,429.558z M743.715,444.448c-3.418,3.662-5.126,8.423-5.126,14.281
			c0,5.859,1.708,10.62,5.126,14.281c3.418,3.662,7.893,5.493,13.427,5.493c5.371,0,9.765-1.831,13.183-5.493
			c3.418-3.661,5.127-8.422,5.127-14.281c0-5.858-1.709-10.619-5.127-14.281c-3.418-3.661-7.812-5.492-13.183-5.492
			C751.607,438.956,747.133,440.787,743.715,444.448z"/>
		<path d="M851.677,429.558c5.167,2.767,9.195,6.652,12.084,11.656c2.888,5.005,4.334,10.763,4.334,17.271
			c0,6.592-1.446,12.41-4.334,17.455c-2.889,5.047-6.917,8.952-12.084,11.718c-5.168,2.768-11.128,4.15-17.882,4.15
			c-6.835,0-12.858-1.383-18.065-4.15c-5.208-2.766-9.257-6.671-12.145-11.718c-2.89-5.045-4.333-10.863-4.333-17.455
			c0-6.509,1.443-12.267,4.333-17.271c2.888-5.004,6.937-8.89,12.145-11.656c5.207-2.766,11.23-4.15,18.065-4.15
			C840.549,425.407,846.509,426.792,851.677,429.558z M820.368,444.448c-3.418,3.662-5.126,8.423-5.126,14.281
			c0,5.859,1.708,10.62,5.126,14.281c3.418,3.662,7.893,5.493,13.427,5.493c5.371,0,9.765-1.831,13.183-5.493
			c3.418-3.661,5.127-8.422,5.127-14.281c0-5.858-1.709-10.619-5.127-14.281c-3.418-3.661-7.812-5.492-13.183-5.492
			C828.261,438.956,823.786,440.787,820.368,444.448z"/>
		<path d="M882.496,400.629h15.868v90.569h-15.868V400.629z"/>
	</g>
</g>
<polygon points="380.889,153.813 252.259,461.78 124.885,308.078 92.73,327.454 262.852,532.739 434.65,121.417 "/>
<g>
	<path fill="none" d="M214.846,118.558c-0.754-6.189-0.871-12.455-1.242-18.318c-2.09,0.428-6.08,1.245-8.703,1.782
		c3.661,12.637,7.38,25.477,11.1,38.318c0.627-0.049,1.253-0.098,1.879-0.146c0.021-1.809,0.312-3.663,0.013-5.417
		C216.97,129.353,215.509,124.006,214.846,118.558z"/>
	<path d="M182.394,257.824c-4.74-7.892-9.612-15.704-14.491-23.512c-2.258-3.613-4.664-7.133-7.008-10.693
		c-2.184-3.317-4.32-6.668-6.574-9.938c-3.997-5.797-8.007-11.587-12.127-17.296c-2.625-3.637-5.443-7.135-8.21-10.666
		c-0.632-0.806-1.805-1.399-2.017-2.264c-0.225-0.916,0.396-2.041,0.653-3.074c1.807-7.243,1.277-14.181-2.318-20.869
		c-3.174-5.905-7.225-11.149-11.463-16.29c-1.907-2.314-3.961-4.586-5.42-7.175c-3.238-5.747-4.369-12.118-4.644-18.654
		c-0.074-1.761-0.125-3.523-0.193-5.462c-0.307,0.222-0.444,0.293-0.544,0.399c-5.367,5.718-9.732,12.067-12.392,19.511
		c-2.444,6.837-3.386,13.867-2.618,21.081c1.279,12.02,5.842,22.594,14.299,31.331c3.421,3.534,7.312,6.318,12.592,6.147
		c0.623-0.02,0.882,0.31,1.058,0.895c0.584,1.948,1.119,3.923,1.881,5.803c2.558,6.321,5.04,12.68,7.859,18.885
		c4.197,9.238,8.577,18.396,13.033,27.512c3.335,6.823,6.807,13.585,10.409,20.271c3.614,6.708,7.289,13.385,11.033,20.021
		l23.948-14.43C186.925,265.493,184.688,261.642,182.394,257.824z"/>
	<path d="M237.022,194.993c-5.174-26.833-10.705-53.609-16.79-80.248c-1.97-8.624,0.041-14.512,5.937-20.786
		c9.814-10.442,18.682-21.775,27.98-32.771c-39.506-27.704-77.216-20.348-102.737,20.785c1.601,0.983,3.138,2.091,4.812,2.928
		c14.012,7.01,28.084,13.902,42.034,21.032c1.805,0.922,3.889,2.772,4.365,4.58c3.123,11.883,6.094,23.819,8.645,35.838
		c6.88,32.428,13.702,64.869,20.513,97.312l12.924-7.788C242.187,222.24,239.647,208.608,237.022,194.993z M217.88,140.193
		c-0.626,0.049-1.253,0.098-1.879,0.146c-3.72-12.84-7.439-25.681-11.1-38.318c2.623-0.537,6.613-1.354,8.703-1.782
		c0.371,5.862,0.489,12.129,1.242,18.318c0.663,5.448,2.125,10.795,3.047,16.218C218.192,136.53,217.901,138.384,217.88,140.193z"/>
	<path d="M324.637,136.644c2.04-17.065,4.043-34.135,6.147-51.913c-9.334,2.703-17.323,1.602-24.776-3.064
		c-0.229,0.573-0.448,0.905-0.49,1.258c-5.004,41.777-10.005,83.555-14.984,125.335l27.528-16.588
		C320.257,173.33,322.445,154.987,324.637,136.644z"/>
	<path d="M323.832,40.185c-0.435,0.003-0.87,0.005-1.305,0.008c-2.338,5.626-4.675,11.251-6.651,16.004
		c3.545-0.052,6.945-0.102,10.628-0.156C325.587,50.603,324.71,45.394,323.832,40.185z"/>
</g>
</svg>
